<svg xmlns="http://www.w3.org/2000/svg" width="20.029" height="20.573" viewBox="0 0 20.029 20.573">
  <g id="noun_Delete_1057636" transform="translate(0 0)">
    <g id="Groupe_246" data-name="Groupe 246" transform="translate(0 0)">
      <path id="Tracé_82" data-name="Tracé 82" d="M24.825,30.873a3.612,3.612,0,0,0,3.627-3.5l.415-12.8H30.81a.518.518,0,1,0,0-1.036H25.369V12.373A2.079,2.079,0,0,0,23.3,10.3H19.358a2.079,2.079,0,0,0-2.073,2.073v1.166H11.818a.518.518,0,0,0,0,1.036h1.943l.415,12.8a3.612,3.612,0,0,0,3.627,3.5Zm-6.5-18.5a1.039,1.039,0,0,1,1.036-1.036H23.3a1.039,1.039,0,0,1,1.036,1.036v1.166H18.322Zm-3.083,14.95-.415-12.774H27.857l-.44,12.774a2.6,2.6,0,0,1-2.591,2.513h-7A2.583,2.583,0,0,1,15.238,27.323Z" transform="translate(-11.3 -10.3)" fill="#b5b5b5"/>
      <path id="Tracé_83" data-name="Tracé 83" d="M48.518,47.784a.52.52,0,0,0,.518-.518V39.518a.518.518,0,1,0-1.036,0v7.747A.52.52,0,0,0,48.518,47.784Z" transform="translate(-38.491 -31.564)" fill="#b5b5b5"/>
      <path id="Tracé_84" data-name="Tracé 84" d="M36.518,47.784a.52.52,0,0,0,.518-.518V39.518a.518.518,0,0,0-1.036,0v7.747A.52.52,0,0,0,36.518,47.784Z" transform="translate(-29.6 -31.564)" fill="#b5b5b5"/>
      <path id="Tracé_85" data-name="Tracé 85" d="M60.518,47.784a.52.52,0,0,0,.518-.518V39.518a.518.518,0,0,0-1.036,0v7.747A.52.52,0,0,0,60.518,47.784Z" transform="translate(-47.382 -31.564)" fill="#b5b5b5"/>
    </g>
  </g>
</svg>
