<svg xmlns="http://www.w3.org/2000/svg" width="100.281" height="54.322" viewBox="0 0 100.281 54.322">
  <g id="noun_delivery_3082648" transform="translate(-0.045 -5.524)">
    <g id="Groupe_202" data-name="Groupe 202" transform="translate(0.045 5.524)">
      <path id="Tracé_24" data-name="Tracé 24" d="M18.894,10.107s0,7.1-.419,7.1H29.337l-5.012-7.1Z" transform="translate(58.816 9.113)" fill="none"/>
      <path id="Tracé_25" data-name="Tracé 25" d="M4.13,13.006H7.892a1.8,1.8,0,0,1,1.673,1.669,1.807,1.807,0,0,1-1.678,1.673H4.13v2.508H14.992a1.8,1.8,0,0,1,1.669,1.673A1.792,1.792,0,0,1,14.992,22.2H4.13v2.508H7.892a1.671,1.671,0,1,1,0,3.342H4.13v2.923H14.992a1.671,1.671,0,0,1,0,3.342H4.13v12.95H8.4a9.253,9.253,0,0,1,9.1-8.358,9.259,9.259,0,0,1,9.063,7.939H56.774V6.321H4.13Z" transform="translate(13.002 -2.979)" fill="none"/>
      <path id="Tracé_26" data-name="Tracé 26" d="M11.773,14.989a5.713,5.713,0,0,0-5.85,5.85,5.713,5.713,0,0,0,5.85,5.85,5.713,5.713,0,0,0,5.85-5.85A5.716,5.716,0,0,0,11.773,14.989Zm0,7.939a2.508,2.508,0,1,1,2.508-2.508A2.509,2.509,0,0,1,11.773,22.928Z" transform="translate(18.728 24.705)" fill="none"/>
      <path id="Tracé_27" data-name="Tracé 27" d="M24.325,14.989a5.713,5.713,0,0,0-5.85,5.85,5.713,5.713,0,0,0,5.85,5.85,5.713,5.713,0,0,0,5.85-5.85A5.713,5.713,0,0,0,24.325,14.989Zm0,7.939a2.508,2.508,0,1,1,2.508-2.508A2.509,2.509,0,0,1,24.325,22.928Z" transform="translate(58.816 24.705)" fill="none"/>
      <path id="Tracé_28" data-name="Tracé 28" d="M39.207,30.739a1.671,1.671,0,1,1,0-3.342H41.3V24.054L30.849,9.011H17.479V38.258h.965a9.142,9.142,0,0,1,18.125,0H41.3V30.739Zm-2.088-7.519a1.713,1.713,0,0,1-1.254.835H20.821a1.8,1.8,0,0,1-1.669-1.669V11.938a1.8,1.8,0,0,1,1.669-1.673H28.76c.419,0,.835.419,1.254.835l7.1,10.447C37.534,21.966,37.345,22.67,37.118,23.219Z" transform="translate(55.635 5.613)" fill="none"/>
      <path id="Tracé_29" data-name="Tracé 29" d="M88.2,17.225c-.419-.419-.835-.835-1.254-.835h-14.2V7.2a1.8,1.8,0,0,0-1.673-1.673H15.5A1.8,1.8,0,0,0,13.83,7.2v8.773H1.714A1.8,1.8,0,0,0,.045,17.644a1.8,1.8,0,0,0,1.669,1.669H13.83v2.508H8.818A1.8,1.8,0,0,0,7.149,23.49a1.8,1.8,0,0,0,1.669,1.673h5.016v2.508H1.714a1.671,1.671,0,0,0,0,3.342H13.83v2.508H8.818a1.671,1.671,0,0,0,0,3.342h5.016V51.488a1.8,1.8,0,0,0,1.673,1.673h6.249a9.14,9.14,0,0,0,17.714-.419h34.8a9.155,9.155,0,0,0,17.844,0h6.538a1.8,1.8,0,0,0,1.673-1.669V34.78ZM30.546,56.914a5.85,5.85,0,1,1,5.85-5.85A5.713,5.713,0,0,1,30.546,56.914Zm39.27-7.519H39.609a9.14,9.14,0,0,0-18.167.419H17.177V36.864H28.038a1.671,1.671,0,0,0,0-3.342H17.177V30.6h3.762a1.671,1.671,0,1,0,0-3.342H17.177V24.748H28.038a1.8,1.8,0,0,0,1.669-1.669A1.8,1.8,0,0,0,28.038,21.4H17.177V18.894h3.762a1.8,1.8,0,0,0,1.673-1.673,1.8,1.8,0,0,0-1.678-1.669H17.177V8.866H69.821V49.395Zm13.37,7.519a5.85,5.85,0,1,1,5.85-5.85A5.713,5.713,0,0,1,83.186,56.914Zm9.063-7.519a9.142,9.142,0,0,0-18.125,0h-.965V20.148h13.37L96.975,35.191v3.342H94.887a1.671,1.671,0,1,0,0,3.342h2.088v7.519Z" transform="translate(-0.045 -5.524)" fill="#b5b5b5"/>
      <path id="Tracé_30" data-name="Tracé 30" d="M28.74,10.145c-.419-.419-.835-.835-1.254-.835H19.547a1.8,1.8,0,0,0-1.669,1.673V21.43A1.8,1.8,0,0,0,19.547,23.1H34.59a1.713,1.713,0,0,0,1.254-.835c.226-.545.419-1.254,0-1.673Zm-8.354,9.612c.419,0,.419-7.1.419-7.1h5.431l5.012,7.1Z" transform="translate(56.909 6.568)" fill="#b5b5b5"/>
      <circle id="Ellipse_72" data-name="Ellipse 72" cx="2.508" cy="2.508" r="2.508" transform="translate(27.993 42.617)" fill="#b5b5b5"/>
      <circle id="Ellipse_73" data-name="Ellipse 73" cx="2.508" cy="2.508" r="2.508" transform="translate(80.633 42.617)" fill="#b5b5b5"/>
    </g>
  </g>
</svg>
