<svg xmlns="http://www.w3.org/2000/svg" width="30.24" height="30.24" viewBox="0 0 30.24 30.24">
  <path id="Facebook_icon-icons.com_55914" d="M7.749,5A2.77,2.77,0,0,0,5,7.749V32.491A2.77,2.77,0,0,0,7.749,35.24H32.491a2.77,2.77,0,0,0,2.749-2.749V7.749A2.77,2.77,0,0,0,32.491,5Zm0,2.749H32.491V32.491H25.361V23.213h3.565l.515-4.124H25.361V16.426c0-1.2.3-2.019,2.019-2.019h2.234V10.67c-.381-.051-1.7-.129-3.222-.129-3.167,0-5.326,1.9-5.326,5.455v3.093H17.457v4.124h3.608v9.278H7.749Z" transform="translate(-5 -5)" fill="#323335"/>
</svg>
