<svg xmlns="http://www.w3.org/2000/svg" width="88.59" height="55.51" viewBox="0 0 88.59 55.51">
  <g id="points" transform="translate(0 -23.899)">
    <path id="Tracé_36" data-name="Tracé 36" d="M88.569,27.461A3.968,3.968,0,0,0,84.624,23.9H3.962A3.969,3.969,0,0,0,.017,27.461C.006,27.6,0,75.447,0,75.447a3.967,3.967,0,0,0,3.962,3.963H84.628a3.967,3.967,0,0,0,3.962-3.963S88.584,27.6,88.569,27.461Zm-2.4,47.985a1.541,1.541,0,0,1-1.539,1.541H3.962a1.542,1.542,0,0,1-1.54-1.541V35.634H86.167Zm0-42.236H2.422V27.862a1.57,1.57,0,0,1,1.555-1.54H84.612a1.57,1.57,0,0,1,1.555,1.541Z" transform="translate(0)" fill="#b5b5b5"/>
    <path id="Tracé_37" data-name="Tracé 37" d="M103.222,60.681a6.662,6.662,0,1,0-6.662-6.662A6.662,6.662,0,0,0,103.222,60.681Zm0-10.9a4.239,4.239,0,1,1-4.239,4.239A4.239,4.239,0,0,1,103.222,49.779Z" transform="translate(-29.727 -7.222)" fill="#b5b5b5"/>
    <path id="Tracé_38" data-name="Tracé 38" d="M18.852,84.238a6.662,6.662,0,1,0-6.662-6.662A6.662,6.662,0,0,0,18.852,84.238Zm0-10.9a4.239,4.239,0,1,1-4.239,4.239,4.239,4.239,0,0,1,4.239-4.239Z" transform="translate(-3.753 -14.474)" fill="#b5b5b5"/>
    <path id="Tracé_39" data-name="Tracé 39" d="M46.975,84.238a6.662,6.662,0,1,0-6.662-6.662A6.662,6.662,0,0,0,46.975,84.238Zm0-10.9a4.239,4.239,0,1,1-4.239,4.239A4.239,4.239,0,0,1,46.975,73.336Z" transform="translate(-12.411 -14.474)" fill="#b5b5b5"/>
    <path id="Tracé_40" data-name="Tracé 40" d="M75.1,84.238a6.662,6.662,0,1,0-6.662-6.662A6.662,6.662,0,0,0,75.1,84.238Zm0-10.9a4.239,4.239,0,1,1-4.239,4.239A4.239,4.239,0,0,1,75.1,73.336Z" transform="translate(-21.069 -14.474)" fill="#b5b5b5"/>
    <path id="Tracé_41" data-name="Tracé 41" d="M103.222,84.238a6.662,6.662,0,1,0-6.662-6.662A6.662,6.662,0,0,0,103.222,84.238Zm0-10.9a4.239,4.239,0,1,1-4.239,4.239A4.239,4.239,0,0,1,103.222,73.336Z" transform="translate(-29.727 -14.474)" fill="#b5b5b5"/>
    <path id="Tracé_42" data-name="Tracé 42" d="M14.82,56.118l-.266,2.96A1.211,1.211,0,0,0,16.236,60.3l2.733-1.168L21.7,60.3a1.224,1.224,0,0,0,1.685-1.223l-.266-2.96,1.955-2.238a1.213,1.213,0,0,0-.643-1.978l-2.9-.662-1.523-2.551a1.211,1.211,0,0,0-2.076,0L16.416,51.24l-2.9.662a1.212,1.212,0,0,0-.651,1.978Zm2.63-2.63a1.208,1.208,0,0,0,.77-.559l.751-1.256.75,1.254a1.212,1.212,0,0,0,.77.559l1.426.326-.962,1.1a1.212,1.212,0,0,0-.294.905l.131,1.458L19.443,56.7a1.217,1.217,0,0,0-.952,0l-1.346.575.131-1.458a1.212,1.212,0,0,0-.294-.905l-.962-1.1Z" transform="translate(-3.87 -7.451)" fill="#b5b5b5"/>
    <path id="Tracé_43" data-name="Tracé 43" d="M42.944,56.118l-.266,2.96A1.211,1.211,0,0,0,44.36,60.3l2.733-1.168L49.827,60.3a1.224,1.224,0,0,0,1.682-1.223l-.266-2.96L53.2,53.879a1.213,1.213,0,0,0-.643-1.978l-2.9-.662-1.523-2.551a1.211,1.211,0,0,0-2.076,0L44.536,51.24l-2.9.662A1.212,1.212,0,0,0,41,53.879Zm2.63-2.63a1.212,1.212,0,0,0,.77-.559l.75-1.256.751,1.256a1.212,1.212,0,0,0,.77.559l1.426.326-.962,1.1a1.212,1.212,0,0,0-.294.905l.131,1.458L47.571,56.7a1.217,1.217,0,0,0-.952,0l-1.346.575.131-1.458a1.212,1.212,0,0,0-.294-.905l-.962-1.1Z" transform="translate(-12.529 -7.451)" fill="#b5b5b5"/>
    <path id="Tracé_44" data-name="Tracé 44" d="M71.067,56.118l-.266,2.96A1.211,1.211,0,0,0,72.483,60.3l2.734-1.168L77.95,60.3a1.224,1.224,0,0,0,1.682-1.223l-.266-2.96,1.955-2.238a1.212,1.212,0,0,0-.643-1.978l-2.9-.662-1.523-2.551a1.211,1.211,0,0,0-2.076,0L72.66,51.24l-2.9.662a1.213,1.213,0,0,0-.643,1.978Zm2.63-2.63a1.212,1.212,0,0,0,.77-.559l.751-1.256.75,1.256a1.212,1.212,0,0,0,.77.559l1.426.326-.962,1.1a1.212,1.212,0,0,0-.294.905l.131,1.458L75.694,56.7a1.217,1.217,0,0,0-.952,0l-1.346.575.131-1.458a1.212,1.212,0,0,0-.294-.905l-.966-1.1Z" transform="translate(-21.187 -7.451)" fill="#b5b5b5"/>
  </g>
</svg>
