<svg id="Groupe_194" data-name="Groupe 194" xmlns="http://www.w3.org/2000/svg" width="20.035" height="20.033" viewBox="0 0 20.035 20.033">
  <path id="Path" d="M8.742,7.193a1,1,0,0,1,0,1.415L8.61,8.74a1,1,0,0,1-1.414,0L.258,1.807a1,1,0,0,1,0-1.415L.39.26A1,1,0,0,1,1.8.26Z" transform="translate(11 11)" fill="#fff"/>
  <g id="Path-2" data-name="Path" fill="none" stroke-miterlimit="10">
    <path d="M7.5,0A7.5,7.5,0,1,0,15,7.5,7.5,7.5,0,0,0,7.5,0Z" stroke="none"/>
    <path d="M 7.5 2 C 4.467289924621582 2 2 4.467289924621582 2 7.5 C 2 10.53271007537842 4.467289924621582 13 7.5 13 C 10.53271007537842 13 13 10.53271007537842 13 7.5 C 13 4.467289924621582 10.53271007537842 2 7.5 2 M 7.5 0 C 11.64213943481445 0 15 3.35785961151123 15 7.5 C 15 11.64213943481445 11.64213943481445 15 7.5 15 C 3.35785961151123 15 0 11.64213943481445 0 7.5 C 0 3.35785961151123 3.35785961151123 0 7.5 0 Z" stroke="none" fill="#fff"/>
  </g>
</svg>
