<svg xmlns="http://www.w3.org/2000/svg" width="26.986" height="23.642" viewBox="0 0 26.986 23.642">
  <path id="Tracé_10" data-name="Tracé 10" d="M57.34,41.514a1.052,1.052,0,0,0-.831-.408H53.442l-4.071-7.069a1.05,1.05,0,1,0-1.819,1.048l3.468,6.021h-13.4l3.468-6.021a1.05,1.05,0,1,0-1.819-1.048L35.2,41.106H32.133a1.05,1.05,0,0,0-1.016,1.316l3.5,13.384a1.05,1.05,0,0,0,1.015.784H53.01a1.05,1.05,0,0,0,1.015-.784l3.5-13.384A1.047,1.047,0,0,0,57.34,41.514ZM52.2,54.49H36.442l-2.95-11.284H55.15Z" transform="translate(-30.828 -33.197)" fill="#fff" stroke="#323335" stroke-width="0.5"/>
</svg>
