<svg xmlns="http://www.w3.org/2000/svg" width="25.527" height="25.527" viewBox="0 0 25.527 25.527">
  <g id="noun_Login_3015974" transform="translate(-0.75 -0.75)">
    <g id="Groupe_199" data-name="Groupe 199" transform="translate(1 1)">
      <path id="Tracé_15" data-name="Tracé 15" d="M36.6,24.172A3.575,3.575,0,1,0,33.022,20.6,3.575,3.575,0,0,0,36.6,24.172Zm0,1.022a4.6,4.6,0,1,1,4.6-4.6A4.6,4.6,0,0,1,36.6,25.194Z" transform="translate(-24.083 -12.169)" fill="#fff" stroke="#fff" stroke-width="0.5"/>
      <path id="Tracé_16" data-name="Tracé 16" d="M16.022,63.8A.511.511,0,1,1,15,63.8a6.624,6.624,0,0,1,6.607-6.64h4.662a6.624,6.624,0,0,1,6.607,6.64.511.511,0,1,1-1.022,0,5.6,5.6,0,0,0-5.586-5.618H21.607A5.6,5.6,0,0,0,16.022,63.8Z" transform="translate(-11.425 -42.817)" fill="#fff" stroke="#fff" stroke-width="0.5"/>
      <path id="Tracé_17" data-name="Tracé 17" d="M13.514,25.006A11.492,11.492,0,1,0,2.022,13.514,11.492,11.492,0,0,0,13.514,25.006Zm0,1.022A12.514,12.514,0,1,1,26.027,13.514,12.514,12.514,0,0,1,13.514,26.027Z" transform="translate(-1 -1)" fill="#fff" stroke="#fff" stroke-width="0.5"/>
    </g>
  </g>
</svg>
