<svg xmlns="http://www.w3.org/2000/svg" width="30.724" height="30.737" viewBox="0 0 30.724 30.737">
  <g id="instagram_f_icon-icons.com_65485" transform="translate(0.25 0.25)">
    <path id="Tracé_19" data-name="Tracé 19" d="M39.308,23.985c0,2.12-.043,4.246.012,6.366a8.423,8.423,0,0,1-5.269,7.943,9.529,9.529,0,0,1-3.783.792c-4.1.006-8.205.061-12.305-.018a8.971,8.971,0,0,1-7.45-3.9A7.605,7.605,0,0,1,9.1,30.655v-13.1a8.2,8.2,0,0,1,4.818-7.675,9.259,9.259,0,0,1,4.313-1.005c3.978,0,7.962-.024,11.94.012a9.157,9.157,0,0,1,7.566,3.692,7.623,7.623,0,0,1,1.572,4.739Zm-27.96,0v6.7a5.236,5.236,0,0,0,.749,2.784,6.737,6.737,0,0,0,5.958,3.35c4.087.061,8.181.024,12.275.012a6.659,6.659,0,0,0,2.887-.64A6.092,6.092,0,0,0,37.06,30.3c-.024-4.325-.006-8.65-.006-12.975a5.5,5.5,0,0,0-1.072-3.332,6.81,6.81,0,0,0-5.653-2.851c-4.081-.049-8.163-.018-12.244-.012a7.191,7.191,0,0,0-2.528.481,6.241,6.241,0,0,0-4.228,6.061C11.4,19.781,11.348,21.883,11.348,23.985Z" transform="translate(-9.1 -8.869)" fill="#323335" stroke="#313234" stroke-width="0.5"/>
    <path id="Tracé_20" data-name="Tracé 20" d="M148.1,147.011A7.006,7.006,0,1,1,155.193,140,7.056,7.056,0,0,1,148.1,147.011Zm0-2.254A4.756,4.756,0,1,0,143.248,140,4.8,4.8,0,0,0,148.1,144.757Z" transform="translate(-132.965 -125.438)" fill="#323335" stroke="#313234" stroke-width="0.5"/>
    <path id="Tracé_21" data-name="Tracé 21" d="M364.586,98a1.555,1.555,0,1,1-1.486,1.566A1.53,1.53,0,0,1,364.586,98Z" transform="translate(-341.535 -92.571)" fill="#323335" stroke="#313234" stroke-width="0.5"/>
  </g>
</svg>
