<?xml version="1.0" encoding="utf-8"?>
<!-- Generator: Adobe Illustrator 25.2.3, SVG Export Plug-In . SVG Version: 6.00 Build 0)  -->
<svg version="1.1" id="Calque_1" xmlns="http://www.w3.org/2000/svg" xmlns:xlink="http://www.w3.org/1999/xlink" x="0px" y="0px"
	 viewBox="0 0 30.7 30.7" style="enable-background:new 0 0 30.7 30.7;" xml:space="preserve">
<style type="text/css">
	.st0{fill:#323335;}
</style>
<path class="st0" d="M3.5,0C1.6,0,0,1.6,0,3.5v23.7c0,1.9,1.6,3.5,3.5,3.5h23.7c1.9,0,3.5-1.6,3.5-3.5V3.5c0-1.9-1.6-3.5-3.5-3.5
	H3.5z M3.5,2.8h23.7c0.4,0,0.7,0.3,0.7,0.7v23.7c0,0.4-0.3,0.7-0.7,0.7H3.5c-0.4,0-0.7-0.3-0.7-0.7V3.5C2.8,3.1,3.1,2.8,3.5,2.8z
	 M7.6,5.2c-1.3,0-2.4,1.1-2.4,2.4S6.3,10,7.6,10C8.9,10,10,9,10,7.6C10,6.3,8.9,5.2,7.6,5.2z M20.2,11.6c-2,0-3.3,1.1-3.9,2.1h-0.1
	v-1.8h-3.9v13.3h4.1v-6.5c0-1.7,0.3-3.4,2.5-3.4c2.1,0,2.1,2,2.1,3.5v6.5h4.1v-7.3C25.1,14.3,24.4,11.6,20.2,11.6z M5.6,11.9v13.3
	h4.1V11.9H5.6z"/>
</svg>
