<?xml version="1.0" encoding="utf-8"?>
<!-- Generator: Adobe Illustrator 24.0.3, SVG Export Plug-In . SVG Version: 6.00 Build 0)  -->
<svg version="1.1" id="Calque_1" xmlns="http://www.w3.org/2000/svg" xmlns:xlink="http://www.w3.org/1999/xlink" x="0px" y="0px"
	 viewBox="0 0 311.4 86" style="enable-background:new 0 0 311.4 86;" xml:space="preserve">
<style type="text/css">
	.st0{fill:#FFFFFF;}
</style>
<path class="st0" d="M95.7,44.8h-7.1V23.6c0-4.9-2.9-8.2-7.3-8.2c-4.4,0-7.6,3.4-7.6,8.2v21.2h-7.1V9.3h6.6v3.5
	c2.5-2.8,5.8-4.3,10-4.3c7.8,0,12.5,5.6,12.5,14.1V44.8z"/>
<path class="st0" d="M108.7,29.6c0.9,5.8,5.2,9.3,10.9,9.3c3.5,0,6.7-1.4,9.7-4.2l3.4,5.2c-3.8,3.8-8.2,5.7-13.3,5.7
	c-10.2,0-17.9-8-17.9-18.5c-0.2-10.2,7.8-18.8,17.2-18.6c8.8,0,15.4,7,15.4,16.3c0,1.5-0.2,3.1-0.5,4.8H108.7z M126.9,23.6
	c-0.1-5.4-3.9-8.7-8.5-8.7c-4.7,0-8.5,3.4-9.6,8.7H126.9z"/>
<path class="st0" d="M158.4,45.6c-4.5,0-8.5-1.9-11.1-5.1v17.3h-7.1V9.3h6.6v5c2.4-3.7,6.7-5.8,11.6-5.8c9.4,0,16.3,8,16.3,18.5
	C174.7,37.7,167.8,45.6,158.4,45.6z M157.2,15.5c-5.2,0-10,3.8-10,11.6c0,7.8,4.8,11.6,10,11.6c5.7,0,10.2-4.8,10.2-11.6
	S163,15.5,157.2,15.5z"/>
<path class="st0" d="M200.7,44.8c-2.2,0.5-4.2,0.8-5.9,0.8c-7.7,0-12.3-4-12.3-12.4V15.9h-5.4V9.3h5.4V0h7.2v9.3h9.9v6.6h-9.9v16.7
	c0,4.6,2.2,6.1,6.6,6.1c1,0,2.4-0.1,4.4-0.4V44.8z"/>
<path class="st0" d="M205.5,9.3h7.1v21.2c0,4.9,3.2,8.1,7.5,8.1c4.1,0,7.3-3.2,7.3-8.1V9.3h7.1v20.6c0,9.5-6.3,15.7-14.4,15.7
	c-8.3,0-14.6-6.1-14.6-15.7V9.3z"/>
<path class="st0" d="M271.6,44.8h-7.1V23.6c0-4.9-2.9-8.2-7.3-8.2c-4.4,0-7.6,3.4-7.6,8.2v21.2h-7.1V9.3h6.6v3.5
	c2.5-2.8,5.8-4.3,10-4.3c7.8,0,12.5,5.6,12.5,14.1V44.8z"/>
<path class="st0" d="M284.6,29.6c0.9,5.8,5.2,9.3,10.9,9.3c3.5,0,6.7-1.4,9.7-4.2l3.4,5.2c-3.8,3.8-8.2,5.7-13.3,5.7
	c-10.2,0-17.9-8-17.9-18.5c-0.2-10.2,7.8-18.8,17.2-18.6c8.8,0,15.4,7,15.4,16.3c0,1.5-0.2,3.1-0.5,4.8H284.6z M302.9,23.6
	c-0.1-5.4-3.9-8.7-8.5-8.7c-4.7,0-8.5,3.4-9.6,8.7H302.9z"/>
<path class="st0" d="M2.6,8C2.7,8,2.7,8,2.6,8L2.6,8c3.4-3.6,9.2-2.7,11.4,1.8c0.5,1.1,0.8,2.3,1,3.6c0.2,1.9,0.8,3.7,1.5,5.5
	c1,2.3,2.3,4.3,4,6.1c2.6,2.8,6.1,4.9,9.8,5.6c1.1,0.2,2.3,0.3,3.4,0.7c1,0.4,1.9,1,2.7,1.8c2.8,3,2.8,7.9,0,10.9
	c-2.7,2.9-7.3,3-10.1,0.1c-0.8-0.8-1.3-1.7-1.7-2.8c-0.4-1.1-0.4-2.2-0.6-3.4c-0.1-0.9-0.4-1.9-0.7-2.8c-0.6-1.9-1.4-3.7-2.5-5.3
	c-0.7-1-1.4-2-2.2-2.8c-1.9-2-4.2-3.6-6.6-4.6c-1.1-0.4-2.1-0.8-3.3-1c-1.2-0.2-2.3-0.3-3.4-0.8c-4.7-1.8-6.2-8.3-3-12.2
	C2.4,8.3,2.5,8.2,2.6,8z"/>
<ellipse class="st0" cx="32.5" cy="10.1" rx="3.7" ry="4"/>
<ellipse class="st0" cx="5.9" cy="39.1" rx="5.9" ry="6.3"/>
<polygon class="st0" points="235.6,66.9 231.3,66.9 226.3,73.6 223.8,77.2 223.8,67.2 220.4,67.2 220.4,83.1 223.8,83.1 223.8,83.1 
	223.8,83.1 226.9,78.4 231.3,82.9 236.2,82.9 229,75.7 "/>
<rect x="258.9" y="67.2" class="st0" width="3.4" height="15.9"/>
<path class="st0" d="M250.5,68.6c-1.4-1.1-3.2-1.8-5.3-1.8c-4.8,0-8.2,3.4-8.2,8.3c0,4.9,3.4,8.3,8.2,8.3c2.1,0,3.9-0.6,5.3-1.7v1.4
	h3.4V67.2h-3.4V68.6z M245.2,80.5c-2.8,0-4.7-2.1-4.7-5.4c0-3.3,1.9-5.4,4.7-5.4c2.9,0,4.7,2.1,4.7,5.4
	C249.9,78.4,248,80.5,245.2,80.5z"/>
<path class="st0" d="M286.8,66.8c-4.8,0-8.2,3.4-8.2,8.3c0,4.9,3.4,8.3,8.2,8.3c4.9,0,8.2-3.4,8.2-8.3
	C295,70.2,291.7,66.8,286.8,66.8z M286.8,80.5c-2.8,0-4.7-2.1-4.7-5.4c0-3.3,1.9-5.4,4.7-5.4c2.9,0,4.7,2.1,4.7,5.4
	C291.5,78.4,289.7,80.5,286.8,80.5z"/>
<path class="st0" d="M271.1,68.2v-1.1h-3.4v15.9h3.4v-8.6c0.2-2.9,2-4.7,4.5-4.7c0.5,0,0.9,0.1,1.3,0.2v-3c-0.4-0.1-0.8-0.1-1.3-0.1
	C273.9,66.9,272.4,67.4,271.1,68.2z"/>
<path class="st0" d="M307,74l-3.1-0.6c-1.8-0.3-2.6-0.8-2.6-2c0-1.3,1.2-2.1,3.1-2.1c2,0,3.4,0.9,3.4,2.5h3.4c0-3.2-2.9-5-6.8-5
	c-3.6,0-6.4,1.9-6.4,4.7c0,2.3,1.2,3.9,4.3,4.4l3.2,0.6c1.8,0.3,2.4,0.9,2.4,2.1c0,1.4-1.2,2.2-3.3,2.2c-2.1,0-3.6-1-3.6-2.6h-3.4
	c0.1,3.1,2.9,5.1,7.1,5.1c3.7,0,6.8-1.7,6.8-5C311.4,76,310,74.5,307,74z"/>
<path class="st0" d="M192.3,67.2v6c0.3-0.4,1.2-1.6,3.2-1.6c2,0,4.3,1.4,4.3,5c0,2.4-1.1,5-4.4,5c-1.9,0-2.8-1-3.2-1.5v1.2h-1.6
	V67.2H192.3z M195.2,80.3c2.2,0,2.9-1.9,2.9-3.7c0-2.3-1.3-3.5-2.9-3.5c-1.3,0-3,0.8-3,3.6C192.2,79.3,193.7,80.3,195.2,80.3z"/>
<path class="st0" d="M209.1,71.9l-4,11.1c-0.7,1.9-1.1,2.9-2.9,2.9c-0.6,0-1.1-0.1-1.5-0.2v-1.4c0.2,0.1,0.6,0.2,1,0.2
	c1.2,0,1.4-0.7,1.9-2l0.4-1.1l-3.2-9.5h1.7l2.4,7.5l2.5-7.5H209.1z"/>
</svg>
