<svg xmlns="http://www.w3.org/2000/svg" width="31.98" height="31.74" viewBox="0 0 31.98 31.74">
  <g id="pinterest_icon-icons.com_65589" transform="translate(0.75 0.75)">
    <path id="Tracé_22" data-name="Tracé 22" d="M18.27,5H31.584a1.745,1.745,0,0,1,1.9,1.878V33.362a1.742,1.742,0,0,1-1.866,1.878H4.86A1.739,1.739,0,0,1,3,33.392V6.848A1.737,1.737,0,0,1,4.866,5Zm-.03.84H4.92A.941.941,0,0,0,3.84,6.92v26.4A.941.941,0,0,0,4.92,34.4H31.56a.941.941,0,0,0,1.08-1.08V6.92a.941.941,0,0,0-1.08-1.08Z" transform="translate(-3 -5)" fill="#323335" stroke="#323335" stroke-width="1.5"/>
    <path id="Tracé_23" data-name="Tracé 23" d="M118.182,61.137c-.181.8-.367,1.574-.53,2.358a13.762,13.762,0,0,1-1.89,4.716c-.22.344-.451.683-.688,1.01a.88.88,0,0,1-.214.158c-.051-.085-.141-.158-.152-.248a16.206,16.206,0,0,1-.181-3.424c.062-.733.214-1.461.35-2.189.13-.7.271-1.393.423-2.087.2-.931.417-1.862.626-2.792.147-.649.327-1.292.412-1.946a2.894,2.894,0,0,0-.175-.953,5.734,5.734,0,0,1-.118-2.172,4.21,4.21,0,0,1,.705-1.862,2.045,2.045,0,0,1,1.805-.965,1.563,1.563,0,0,1,1.461,1.128,4.028,4.028,0,0,1-.051,2.324c-.316,1.247-.694,2.482-.953,3.746A2.067,2.067,0,0,0,121.6,60.28a3.55,3.55,0,0,0,2.189-1.771,9,9,0,0,0,1.106-3.17,11.7,11.7,0,0,0,.175-2.8,4.822,4.822,0,0,0-2.183-3.966,4.536,4.536,0,0,0-2-.716,8.956,8.956,0,0,0-1.343-.1,5.9,5.9,0,0,0-4.9,2.713,6.554,6.554,0,0,0-.959,2.33,5.933,5.933,0,0,0-.068,2.595,4.5,4.5,0,0,0,.632,1.472,1.347,1.347,0,0,1,.231,1.241c-.073.259-.13.525-.2.784a.453.453,0,0,1-.722.322,4.312,4.312,0,0,1-2.217-2.826,8.388,8.388,0,0,1,.711-6.38,8.676,8.676,0,0,1,2.849-3.131,9.141,9.141,0,0,1,2.256-1.055,9.6,9.6,0,0,1,3.531-.395,7.74,7.74,0,0,1,6.16,3.43,7.446,7.446,0,0,1,1.151,2.584,9.15,9.15,0,0,1,.181,2.883,14.217,14.217,0,0,1-.44,2.629,8.244,8.244,0,0,1-3.063,4.71,4.638,4.638,0,0,1-2.211.925,7.129,7.129,0,0,1-1.726.079,3.393,3.393,0,0,1-2.307-1.314c-.051-.068-.1-.13-.158-.192C118.267,61.154,118.244,61.154,118.182,61.137Z" transform="translate(-103.973 -42.217)" fill="#323335"/>
  </g>
</svg>
