<svg xmlns="http://www.w3.org/2000/svg" width="52.089" height="56.207" viewBox="0 0 52.089 56.207">
  <g id="noun_shopping_parcel_return_3189646" data-name="noun_shopping parcel return_3189646" transform="translate(-2.451 1.326)">
    <g id="Groupe_208" data-name="Groupe 208" transform="translate(2.951 -0.619)">
      <path id="Tracé_48" data-name="Tracé 48" d="M46.773,21.255l-4.432-8.59a.836.836,0,0,0-.743-.453H8.225a.836.836,0,0,0-.743.453l-4.432,8.59c0,.009-.006.019-.01.028a.813.813,0,0,0-.036.1.824.824,0,0,0-.036.181.779.779,0,0,0-.016.078v31.9a.836.836,0,0,0,.836.836H46.024a.836.836,0,0,0,.836-.836v-24.9h3.075a4.109,4.109,0,0,0,4.1-4.1V7.133a4.109,4.109,0,0,0-4.1-4.1H12.792L15.256.564,14.074-.619,10.182,3.273a.836.836,0,0,0,0,1.182l3.892,3.892,1.182-1.182L12.792,4.7H49.935a2.435,2.435,0,0,1,2.432,2.433V24.538a2.435,2.435,0,0,1-2.432,2.433H46.86V21.7A.832.832,0,0,0,46.773,21.255Zm-17.7,8.9-3.785-1.734a.838.838,0,0,0-.706,0L20.834,30.2l-.044-7.726h8.243ZM20.742,13.907l8.243-.024.039,6.919H20.781Zm23.915,6.9H30.7l-.039-6.919h10.43ZM8.734,13.883H19.069l.039,6.919H5.165ZM45.188,52.709H4.623V22.479h14.5l.051,9.048a.836.836,0,0,0,1.194.751l4.587-2.17,4.623,2.118a.836.836,0,0,0,1.185-.765l-.051-8.982H45.188Z" transform="translate(-2.951 0.619)" fill="#b5b5b5" stroke="#b5b5b5" stroke-width="1"/>
    </g>
  </g>
</svg>
